<?xml version="1.0" standalone="no"?>
<!DOCTYPE svg PUBLIC "-//W3C//DTD SVG 1.1//EN" "http://www.w3.org/Graphics/SVG/1.1/DTD/svg11.dtd" >
<svg>
<metadata>
Created by FontForge 20090622 at Wed Nov 18 07:33:18 2015
 By deploy user
Copyright (c) 2011 by Gesine Todt. All rights reserved.
</metadata>
<defs>
<font id="Amaranth" horiz-adv-x="500" >
  <font-face 
    font-family="Amaranth"
    font-weight="400"
    font-stretch="normal"
    units-per-em="1000"
    panose-1="2 0 5 3 0 0 0 2 0 4"
    ascent="800"
    descent="-200"
    x-height="498"
    cap-height="677"
    bbox="-67 -223 872 930"
    underline-thickness="50"
    underline-position="-50"
    unicode-range="U+0020-U+2215"
  />
<missing-glyph horiz-adv-x="273" 
 />
    <glyph glyph-name=".notdef" horiz-adv-x="273" 
 />
    <glyph glyph-name=".null" horiz-adv-x="0" 
 />
    <glyph glyph-name="nonmarkingreturn" horiz-adv-x="333" 
 />
    <glyph glyph-name="space" unicode=" " horiz-adv-x="255" 
 />
    <glyph glyph-name="exclam" unicode="!" horiz-adv-x="319" 
d="M176 141q35 0 54 -20.5t19 -54.5t-19.5 -55.5t-56.5 -21.5q-34 0 -53.5 21.5t-19.5 52.5q0 35 19.5 56.5t56.5 21.5zM126 220v457h129l-29 -457h-100z" />
    <glyph glyph-name="quotedbl" unicode="&#x22;" horiz-adv-x="367" 
d="M50 677h97l-8 -243h-81zM220 677h97l-8 -243h-81z" />
    <glyph glyph-name="numbersign" unicode="#" horiz-adv-x="616" 
d="M405 593h80l-18 -136h99l-10 -79h-99l-20 -156h106l-10 -79h-106l-18 -143h-80l18 143h-123l-18 -143h-80l18 143h-104l10 79h104l20 156h-111l10 79h111l18 136h80l-18 -136h123zM254 378l-20 -156h123l20 156h-123z" />
    <glyph glyph-name="dollar" unicode="$" horiz-adv-x="520" 
d="M223 694h83v-77q46 -5 87 -20t59 -26l-41 -82q-26 12 -47 20q-52 21 -89 21q-86 0 -86 -58q0 -38 26.5 -60.5t88.5 -45.5q81 -33 118.5 -70.5t37.5 -103.5q0 -62 -41 -112t-113 -65v-98h-83v94q-96 9 -173 58l43 89q23 -13 56 -28q58 -28 95 -28q99 0 99 82q0 26 -13 43
t-29 24.5t-53 20.5q-90 34 -133.5 76t-43.5 111q0 57 42 100.5t110 55.5v79z" />
    <glyph glyph-name="percent" unicode="%" horiz-adv-x="843" 
d="M238 0l274 587h95l-274 -587h-95zM194 591q148 0 148 -174q0 -80 -39.5 -130t-114.5 -50q-148 0 -148 173q0 81 39.5 131t114.5 50zM188 520q-49 0 -49 -104q0 -52 11.5 -80t43.5 -28q49 0 49 104q0 52 -11.5 80t-43.5 28zM655 351q148 0 148 -174q0 -80 -39.5 -130
t-114.5 -50q-148 0 -148 173q0 81 39.5 131t114.5 50zM649 280q-49 0 -49 -104q0 -52 11.5 -80t43.5 -28q49 0 49 104q0 52 -11.5 80t-43.5 28z" />
    <glyph glyph-name="ampersand" unicode="&#x26;" horiz-adv-x="575" 
d="M443 523l-58 -64l-26 21q-31 21 -58 21q-61 0 -61 -53q0 -45 43 -99t130 -132q25 42 40 79l85 -35q-31 -69 -55 -105l97 -84l-58 -77l-101 83q-87 -84 -204 -84q-73 0 -127.5 47.5t-54.5 127.5q0 116 109 194q-23 48 -23 90q0 60 42.5 101t128.5 41q95 0 151 -72z
M349 138q-110 93 -155 151q-40 -42 -40 -105q0 -42 25.5 -66.5t70.5 -24.5q49 0 99 45z" />
    <glyph glyph-name="quotesingle" unicode="'" horiz-adv-x="197" 
d="M50 677h97l-8 -243h-81z" />
    <glyph glyph-name="parenleft" unicode="(" horiz-adv-x="383" 
d="M70 269q0 91 22 171.5t57 136t67.5 91.5t64.5 58l62 -69q-26 -21 -50.5 -52t-50.5 -78.5t-42 -115t-16 -143.5t16 -144t42 -115.5t50.5 -78.5t50.5 -52l-62 -69q-32 23 -64.5 58.5t-67.5 91t-57 137t-22 173.5z" />
    <glyph glyph-name="parenright" unicode=")" horiz-adv-x="383" 
d="M343 269q0 -92 -22 -173.5t-57 -137t-67.5 -91t-64.5 -58.5l-62 69q26 21 50.5 52t50.5 78.5t42 115.5t16 144t-16 143.5t-42 115t-50.5 78.5t-50.5 52l62 69q32 -22 64.5 -58t67.5 -91.5t57 -136t22 -171.5z" />
    <glyph glyph-name="asterisk" unicode="*" horiz-adv-x="451" 
d="M174 677h97l-10 -114l110 46l30 -92l-113 -27l76 -87l-79 -57l-61 99l-61 -100l-79 57l77 89l-111 26l30 92l103 -43z" />
    <glyph glyph-name="plus" unicode="+" horiz-adv-x="512" 
d="M60 257v89h148v152h95v-152h149v-89h-149v-158h-95v158h-148z" />
    <glyph glyph-name="comma" unicode="," horiz-adv-x="281" 
d="M87 123q5 5 15 9q25 9 51 9q34 0 51 -20.5t17 -54.5q0 -75 -39 -129t-99 -85l-43 59q37 28 52.5 61.5t14 54.5t-10 54.5t-9.5 41.5z" />
    <glyph glyph-name="hyphen" unicode="-" horiz-adv-x="383" 
d="M50 277v84h283v-84h-283z" />
    <glyph glyph-name="period" unicode="." horiz-adv-x="269" 
d="M136 141q35 0 54 -20.5t19 -54.5t-19.5 -55.5t-56.5 -21.5q-34 0 -53.5 21.5t-19.5 52.5q0 35 19.5 56.5t56.5 21.5z" />
    <glyph glyph-name="slash" unicode="/" horiz-adv-x="418" 
d="M-10 -126l318 855h120l-318 -855h-120z" />
    <glyph glyph-name="zero" unicode="0" horiz-adv-x="564" 
d="M289 642q120 0 175 -79.5t55 -235.5q0 -157 -59 -245t-184 -88q-121 0 -176 80t-55 237q0 156 59.5 243.5t184.5 87.5zM276 554q-59 0 -82.5 -59t-23.5 -173q0 -55 4.5 -94t16.5 -74.5t36.5 -53.5t60.5 -18q59 0 82 59t23 174q0 55 -4.5 94.5t-16.5 74t-36 52.5t-60 18z
" />
    <glyph glyph-name="one" unicode="1" horiz-adv-x="386" 
d="M200 637h86v-637h-115v503q-67 -64 -126 -82l-45 83q1 1 23 11l25.5 11.5t22.5 11t26 14.5t23.5 15.5t26.5 19.5l24.5 22t28.5 28z" />
    <glyph glyph-name="two" unicode="2" horiz-adv-x="492" 
d="M78 506l-39 80q126 56 218 56q79 0 128.5 -40.5t49.5 -132.5q0 -60 -38 -119.5t-124 -157.5l-91 -100h270v-92h-417v92q11 13 68.5 73t68.5 73q83 96 110 140t27 92q0 38 -21 61t-55 23q-13 0 -26 -2t-22.5 -4t-26 -8t-23 -9t-28.5 -12.5z" />
    <glyph glyph-name="three" unicode="3" 
d="M247 642q86 0 132.5 -37.5t46.5 -101.5q0 -89 -102 -136q61 -18 96 -65t35 -104q0 -40 -12 -75t-37.5 -64.5t-72.5 -47t-110 -17.5q-75 0 -188 52l34 84q4 -2 21.5 -9.5t21.5 -9.5t18 -8t19.5 -7.5t17 -5t18.5 -5t16 -2.5t18 -1q49 0 83.5 29.5t34.5 84.5q0 44 -26.5 73
t-62.5 29q-20 0 -43 -3t-38 -6t-16 -3l-32 79l3 -1h-1q-1 1 -2 1q108 35 137 52q49 29 49 74q0 63 -74 63q-12 0 -24.5 -1.5t-21 -3t-23 -6.5t-21 -7.5l-26.5 -10.5l-28 -11l-39 79q58 26 100.5 37.5t98.5 11.5z" />
    <glyph glyph-name="four" unicode="4" horiz-adv-x="525" 
d="M414 485v-222h96l-16 -88h-80v-175h-115v175h-279v65l181 397h119l-175 -374h154v202z" />
    <glyph glyph-name="five" unicode="5" horiz-adv-x="509" 
d="M279 404q82 0 132 -57t50 -141q0 -43 -12.5 -81t-38 -69t-71.5 -48t-106 -14q-86 5 -188 52l34 84q4 -2 21.5 -9.5t21.5 -9.5t18.5 -8t19.5 -7.5l16.5 -5t18.5 -5t16.5 -2.5t18.5 -1q56 0 81 30.5t25 94.5q0 51 -26.5 79t-72.5 28q-27 0 -51.5 -4t-37.5 -9t-24 -10
l-11 -5l-48 36l34 315h329l-16 -92h-212l-21 -159q28 18 100 18z" />
    <glyph glyph-name="six" unicode="6" horiz-adv-x="525" 
d="M444 613l-31 -80q-51 18 -101 18q-78 0 -109.5 -54t-34.5 -147q56 63 134 63q88 0 138 -54.5t50 -153.5q0 -93 -58.5 -152t-163.5 -59q-223 0 -223 324q0 66 15.5 122.5t46.5 102t84.5 71.5t124.5 26q65 0 128 -27zM279 326q-34 0 -66.5 -17t-44.5 -29q4 -105 29 -152.5
t80 -47.5q96 0 96 124q0 122 -94 122z" />
    <glyph glyph-name="seven" unicode="7" horiz-adv-x="458" 
d="M5 637h418v-73l-201 -564h-125l194 545h-270z" />
    <glyph glyph-name="eight" unicode="8" horiz-adv-x="525" 
d="M262 -6q-92 0 -152 42.5t-60 122.5q0 94 123 169q-106 62 -106 160q0 64 58 109t142 45q78 0 132.5 -43.5t54.5 -106.5q0 -88 -103 -157q53 -29 88.5 -74t35.5 -96q0 -77 -60.5 -124t-152.5 -47zM170 163q0 -38 26.5 -63.5t72.5 -25.5q37 0 60 25.5t23 61.5q0 60 -88 125
q-94 -53 -94 -123zM334 491q0 31 -19.5 51t-52.5 20q-35 0 -55.5 -18t-20.5 -51q0 -69 77 -113q34 20 52.5 45t18.5 66z" />
    <glyph glyph-name="nine" unicode="9" horiz-adv-x="524" 
d="M81 21l31 80q51 -18 101 -18q79 0 109.5 53t33.5 147q-48 -62 -133 -62q-88 0 -138 54.5t-50 153.5q0 93 58.5 152t163.5 59q223 0 223 -324q0 -66 -15.5 -122.5t-46.5 -102t-84.5 -71.5t-124.5 -26q-65 0 -128 27zM246 308q33 0 65.5 16.5t44.5 28.5q-3 105 -28 153
t-80 48q-96 0 -96 -124q0 -122 94 -122z" />
    <glyph glyph-name="colon" unicode=":" horiz-adv-x="289" 
d="M166 141q35 0 54 -20.5t19 -54.5t-19.5 -55.5t-56.5 -21.5q-34 0 -53.5 21.5t-19.5 52.5q0 35 19.5 56.5t56.5 21.5zM166 510q35 0 54 -20.5t19 -54.5t-19.5 -55.5t-56.5 -21.5q-34 0 -53.5 21.5t-19.5 52.5q0 35 19.5 56.5t56.5 21.5z" />
    <glyph glyph-name="semicolon" unicode=";" horiz-adv-x="290" 
d="M165 510q35 0 54 -20.5t19 -54.5t-19.5 -55.5t-56.5 -21.5q-34 0 -53.5 21.5t-19.5 52.5q0 35 19.5 56.5t56.5 21.5zM106 123q4 5 15 9q25 9 51 9q34 0 51 -20.5t17 -54.5q0 -75 -39 -129t-99 -85l-43 59q37 28 52.5 61.5t14 54.5t-10 54.5t-9.5 41.5z" />
    <glyph glyph-name="less" unicode="&#x3c;" horiz-adv-x="455" 
d="M415 183l-40 -93l-345 168v84l339 165l40 -94l-192 -87q-4 -2 -62 -26l63 -26z" />
    <glyph glyph-name="equal" unicode="=" horiz-adv-x="503" 
d="M70 347v89h363v-89h-363zM70 172v89h363v-89h-363z" />
    <glyph glyph-name="greater" unicode="&#x3e;" horiz-adv-x="455" 
d="M80 90l-40 93l197 91q34 15 63 26q-42 15 -62 26l-192 87l40 94l339 -165v-84z" />
    <glyph glyph-name="question" unicode="?" horiz-adv-x="434" 
d="M219 687q190 0 190 -150q0 -27 -8 -53.5t-26 -55t-30 -44l-38 -47.5q-67 -86 -84 -140l-85 23q0 39 14.5 77t35.5 67.5l42 56.5t35.5 53.5t14.5 48.5q0 35 -21 55.5t-55 20.5q-11 0 -21 -1.5t-17 -3t-19.5 -6.5l-18.5 -7.5t-23.5 -11l-25.5 -12.5l-39 80q110 50 179 50z
M187 141q35 0 54 -20.5t19 -54.5t-19.5 -55.5t-56.5 -21.5q-34 0 -53.5 21.5t-19.5 52.5q0 35 19.5 56.5t56.5 21.5z" />
    <glyph glyph-name="at" unicode="@" horiz-adv-x="896" 
d="M627 430v-213q0 -68 10 -105.5t41 -37.5q32 0 55 51.5t27 118.5q8 143 -72.5 218.5t-206.5 75.5q-64 0 -124 -22t-108.5 -62.5t-78 -105.5t-29.5 -145q0 -58 12.5 -106t41 -90.5t83.5 -66.5t133 -24q59 0 116 19q22 6 56 19l28 -70q-27 -13 -62 -24q-71 -23 -138 -23
q-57 0 -106.5 10.5t-96 36.5t-80 66.5t-53.5 104t-20 144.5q0 98 38 179.5t100.5 132.5t139.5 78.5t159 27.5q74 0 138.5 -23t114.5 -67t77.5 -115.5t22.5 -162.5q-6 -112 -57.5 -183.5t-117.5 -71.5q-99 0 -128 115q-29 -115 -142 -115q-83 0 -124.5 59.5t-41.5 164.5
q0 104 60 171t156 67q50 0 115 -13q37 -7 62 -13zM417 70q42 0 71.5 50t31.5 117v134q-37 10 -59 10q-57 0 -85 -41.5t-28 -112.5q0 -73 14.5 -115t54.5 -42z" />
    <glyph glyph-name="A" unicode="A" horiz-adv-x="606" 
d="M-5 0l260 677h96l260 -677h-128l-62 177h-243l-63 -177h-120zM210 266h180q-53 152 -89 277q-62 -195 -91 -277z" />
    <glyph glyph-name="B" unicode="B" horiz-adv-x="565" 
d="M70 0v677h20q48 0 71 1q21 0 59.5 0.5t50.5 0.5q116 0 177 -46t61 -130q0 -99 -103 -151q60 -23 92 -65t32 -97q0 -89 -67 -140t-196 -51h-114q-41 0 -60 1h-23zM264 304q-55 0 -74 -1v-217h85q65 0 95.5 28.5t30.5 77.5q0 48 -32 80t-105 32zM256 593q-50 0 -66 -1v-203
h76q59 0 87.5 27t28.5 73q0 45 -29.5 74.5t-96.5 29.5z" />
    <glyph glyph-name="C" unicode="C" horiz-adv-x="524" 
d="M504 614l-62 -74q-48 53 -112 53q-80 0 -116.5 -68.5t-36.5 -183.5q0 -254 163 -254q17 0 35 2.5t33 6t26 7l21 7t11 3.5l28 -85q-16 -8 -50 -17q-60 -17 -127 -17q-270 0 -270 336q0 164 74.5 260t220.5 96q100 0 162 -72z" />
    <glyph glyph-name="D" unicode="D" horiz-adv-x="643" 
d="M70 0v677h20q44 0 65 1q19 0 58 0.5t54 0.5q333 0 333 -336q0 -345 -346 -345q-80 0 -111 1q-34 0 -50 1h-23zM253 589q-18 0 -38.5 -0.5t-24.5 -0.5v-499q15 -1 78 -1q104 0 153 61t49 183q0 257 -217 257z" />
    <glyph glyph-name="E" unicode="E" horiz-adv-x="513" 
d="M70 0v677h403v-91h-283v-188h233l-15 -91h-218v-216h298v-91h-418z" />
    <glyph glyph-name="F" unicode="F" horiz-adv-x="488" 
d="M70 0v677h403v-91h-283v-194h233l-15 -91h-218v-301h-120z" />
    <glyph glyph-name="G" unicode="G" horiz-adv-x="605" 
d="M447 15q3 29 3 50q0 11 -1 14q-48 -87 -168 -87q-122 0 -180 89t-58 248q0 163 75 260t221 97q117 0 185 -72l-59 -76q-55 55 -139 55q-80 0 -116.5 -69.5t-36.5 -184.5q0 -253 131 -253q50 0 91.5 42.5t41.5 109.5v91h118v-302q0 -47 -11.5 -85t-26.5 -61.5t-43 -45.5
t-46 -32t-51 -26l-47 80q30 14 52 31.5t33 30t18.5 34t9 28t3.5 28.5q1 4 1 6z" />
    <glyph glyph-name="H" unicode="H" horiz-adv-x="658" 
d="M468 0v307h-278v-307h-120v677h120v-281h278v281h120v-677h-120z" />
    <glyph glyph-name="I" unicode="I" horiz-adv-x="260" 
d="M70 0v677h120v-677h-120z" />
    <glyph glyph-name="J" unicode="J" horiz-adv-x="260" 
d="M190 677v-651q0 -46 -11.5 -84t-26.5 -61t-43 -45t-46.5 -32.5t-50.5 -26.5l-47 80q38 19 61.5 40t32 44.5t10 36t1.5 36.5v663h120z" />
    <glyph glyph-name="K" unicode="K" horiz-adv-x="593" 
d="M70 0v677h120v-677h-120zM422 677h119q-30 -140 -73 -208.5t-114 -116.5l246 -352h-140l-257 366v7q88 32 139 107t80 197z" />
    <glyph glyph-name="L" unicode="L" horiz-adv-x="443" 
d="M70 0v677h120v-586h253v-91h-373z" />
    <glyph glyph-name="M" unicode="M" horiz-adv-x="813" 
d="M640 0l-10 255q-3 34 -5 169l-63 -166l-111 -258h-85l-112 255q-27 60 -67 172q0 -40 -2 -100.5t-2 -68.5l-10 -258h-113l40 679h94l171 -423l42 -104q26 69 42 104l170 420v3h94l40 -679h-113z" />
    <glyph glyph-name="N" unicode="N" horiz-adv-x="660" 
d="M473 326l-3 351h120v-678h-100l-227 354l-84 133q8 -86 8 -135l3 -351h-120v679h94l234 -350l81 -124q-6 86 -6 121z" />
    <glyph glyph-name="O" unicode="O" horiz-adv-x="669" 
d="M341 686q283 0 283 -342q0 -162 -74 -256t-222 -94q-283 0 -283 336q0 164 74 260t222 96zM327 593q-152 0 -152 -252q0 -55 7.5 -97.5t25 -79.5t51.5 -57t83 -20q152 0 152 247q0 259 -167 259z" />
    <glyph glyph-name="P" unicode="P" horiz-adv-x="535" 
d="M70 0v677h20q48 0 71 1q21 0 59.5 0.5t50.5 0.5q120 0 179.5 -53t59.5 -151q0 -96 -65 -153t-186 -57h-69v-265h-120zM256 593q-50 0 -66 -1v-238h76q59 0 87.5 31.5t28.5 85.5q0 52 -29.5 87t-96.5 35z" />
    <glyph glyph-name="Q" unicode="Q" horiz-adv-x="673" 
d="M616 -63l41 -85q-48 -33 -98.5 -49.5t-111 -16.5t-127 35t-131.5 103l22 67q119 -25 202.5 68.5t83.5 272.5q0 261 -167 261q-81 0 -121 -70.5t-40 -178.5q0 -96 24 -146.5t86 -64.5l-13 -86q-113 8 -168 92t-55 196q0 158 77 254.5t224 96.5q283 0 283 -343
q0 -177 -80.5 -291t-199.5 -135q36 -25 77 -29.5t85.5 8t106.5 41.5z" />
    <glyph glyph-name="R" unicode="R" horiz-adv-x="575" 
d="M271 679q239 0 239 -185q0 -130 -124 -168q22 -13 39.5 -30.5t38 -55t30.5 -59t38 -87l41 -94.5h-131q-76 177 -107 222q-43 65 -102 70q-7 1 -14 1h-29v-293h-120v677h20q48 0 71 1q21 0 59.5 0.5t50.5 0.5zM256 593h-66v-213h76q55 0 85.5 25.5t30.5 73.5
q0 50 -29.5 82t-96.5 32z" />
    <glyph glyph-name="S" unicode="S" horiz-adv-x="508" 
d="M265 686q61 0 115.5 -18t81.5 -35l-49 -87q-27 14 -48 23q-59 23 -93 23q-38 0 -63.5 -17.5t-25.5 -51.5q0 -44 28 -72.5t92 -53.5q88 -35 129 -78t41 -120q0 -83 -61 -144t-165 -61t-217 65l42 93q38 -22 62 -32q70 -32 105 -32q104 0 104 98q0 42 -24 64.5t-76 42.5
q-100 42 -145.5 86.5t-45.5 126.5q0 75 60.5 127.5t152.5 52.5z" />
    <glyph glyph-name="T" unicode="T" horiz-adv-x="493" 
d="M10 586v91h473l-15 -91h-168v-586h-120v586h-170z" />
    <glyph glyph-name="U" unicode="U" horiz-adv-x="636" 
d="M60 677h119v-418q0 -172 145 -172q66 0 99 44.5t33 127.5v418h120v-427q0 -115 -63 -185.5t-202 -70.5q-133 0 -192 70.5t-59 185.5v427z" />
    <glyph glyph-name="V" unicode="V" horiz-adv-x="581" 
d="M591 677l-253 -677h-95l-253 677h129l84 -243q35 -101 89 -273q32 110 89 271l87 245h123z" />
    <glyph glyph-name="W" unicode="W" horiz-adv-x="870" 
d="M595 0l-133 408q-4 10 -24 82q-3 -10 -10 -37.5t-12 -44.5l-129 -408h-89l-188 677h120l88 -336q21 -78 33 -144q15 61 40 142l105 338h90l105 -338q24 -77 41 -149q9 70 31 149l87 338h122l-188 -677h-89z" />
    <glyph glyph-name="X" unicode="X" horiz-adv-x="584" 
d="M138 0h-138l210 355l-190 322h136l95 -171q17 -29 41 -79q21 44 41 78l96 172h136l-191 -323l210 -354h-138l-112 200q-17 30 -42 81q-31 -62 -42 -81z" />
    <glyph glyph-name="Y" unicode="Y" horiz-adv-x="544" 
d="M210 0v259l-210 418h130l142 -305l144 305h128l-214 -423v-254h-120z" />
    <glyph glyph-name="Z" unicode="Z" horiz-adv-x="529" 
d="M494 0h-454v72l293 514q-27 -3 -86 -3h-190l-16 94h441v-72l-288 -513q46 2 74 2h226v-94z" />
    <glyph glyph-name="bracketleft" unicode="[" horiz-adv-x="370" 
d="M80 720h230v-89h-120v-728h120v-89h-230v906z" />
    <glyph glyph-name="backslash" unicode="\" horiz-adv-x="418" 
d="M110 729l318 -855h-120l-318 855h120z" />
    <glyph glyph-name="bracketright" unicode="]" horiz-adv-x="370" 
d="M290 720v-906h-230v89h120v728h-120v89h230z" />
    <glyph glyph-name="asciicircum" unicode="^" horiz-adv-x="542" 
d="M154 296l-104 19l179 362h84l179 -362l-108 -13l-87 192q-10 17 -26 62l-26 -63z" />
    <glyph glyph-name="underscore" unicode="_" 
d="M0 -163v84h500v-84h-500z" />
    <glyph glyph-name="grave" unicode="`" 
d="M373 591l-49 -52l-69 48q-83 65 -129 122l77 72z" />
    <glyph glyph-name="a" unicode="a" horiz-adv-x="536" 
d="M467 477v-236q0 -100 24 -166q10 -29 25 -47l-91 -36q-14 16 -23 31q-24 40 -28 91q-34 -120 -155 -120q-91 0 -137.5 66t-46.5 182q0 115 67 189.5t172 74.5q42 0 126 -15q16 -3 67 -14zM238 75q47 0 80.5 60t33.5 136v143q-48 11 -65 11q-128 0 -128 -173
q0 -40 2.5 -67t10 -55t24 -41.5t42.5 -13.5z" />
    <glyph glyph-name="b" unicode="b" horiz-adv-x="532" 
d="M65 23v682l115 20v-304q37 85 133 85q91 0 137.5 -66t46.5 -182q0 -115 -67 -189.5t-172 -74.5q-49 0 -127 14q-33 6 -66 15zM294 425q-47 0 -80.5 -60t-33.5 -136v-144q40 -10 65 -10q128 0 128 173q0 40 -2.5 67t-10 55t-24 41.5t-42.5 13.5z" />
    <glyph glyph-name="c" unicode="c" horiz-adv-x="410" 
d="M400 442l-65 -62q-18 21 -33.5 31t-37.5 10q-19 0 -34 -5t-33 -20.5t-28 -52t-10 -91.5q0 -176 110 -176q22 0 62 10q24 6 35 10l28 -73q-16 -9 -39 -15q-47 -15 -102 -15q-111 0 -164.5 64.5t-53.5 179.5q0 128 64.5 200.5t164.5 72.5q87 0 136 -68z" />
    <glyph glyph-name="d" unicode="d" horiz-adv-x="536" 
d="M516 28l-91 -36q-14 16 -23 31q-24 40 -28 91q-34 -120 -155 -120q-91 0 -137.5 66t-46.5 182q0 115 67 189.5t172 74.5q31 0 78 -7v226l115 -20v-464q0 -100 24 -166q10 -27 25 -47zM238 76q48 0 81 59.5t33 135.5v143q-48 11 -65 11q-128 0 -128 -173q0 -40 2.5 -67
t10 -54.5t24 -41t42.5 -13.5z" />
    <glyph glyph-name="e" unicode="e" horiz-adv-x="473" 
d="M35 237q0 130 67.5 201.5t173.5 71.5q85 0 126 -39t41 -103q0 -75 -78.5 -126.5t-207.5 -53.5q7 -52 31.5 -82t78.5 -30q40 0 93 17q24 7 49 18l30 -72q-19 -10 -56 -23q-67 -23 -132 -23q-216 0 -216 244zM267 431q-107 0 -113 -170q86 2 130 34.5t44 72.5q0 29 -17 46
t-44 17z" />
    <glyph glyph-name="f" unicode="f" horiz-adv-x="353" 
d="M378 679l-50 -65q-5 5 -20.5 12t-27.5 7q-15 0 -28 -4t-29 -18t-17.5 -40.5t7.5 -71.5v-1h124l-14 -82h-104v-391q0 -57 -14 -99t-43.5 -71t-52.5 -43.5t-62 -34.5l-47 77q35 18 57.5 39.5t32 44.5t12 39t2.5 37v402h-90v82h87q-2 8 -2 11q-21 100 32 156.5t141 56.5
q65 0 106 -43z" />
    <glyph glyph-name="g" unicode="g" horiz-adv-x="531" 
d="M374 84q-2 2 -3 7t-2 7q-35 -104 -150 -104q-91 0 -137.5 66t-46.5 182q0 115 67 189.5t172 74.5q82 0 180 -27l16 -2l-5 -274q-2 -41 14.5 -106t16.5 -104q0 -109 -61 -163t-165 -46q-60 4 -110 23q-26 7 -48 18l28 88q90 -34 130 -38q55 -5 86 24t33 77.5t-15 107.5z
M238 75q46 0 79 57t35 131v151q-48 11 -65 11q-128 0 -128 -173q0 -40 2.5 -67t10 -55t24 -41.5t42.5 -13.5z" />
    <glyph glyph-name="h" unicode="h" horiz-adv-x="540" 
d="M180 725v-290q54 71 154 71q67 0 104 -37q42 -42 42 -135v-334h-115v326q0 90 -65 90q-44 0 -80 -41.5t-40 -107.5v-267h-115v705z" />
    <glyph glyph-name="i" unicode="i" horiz-adv-x="257" 
d="M170 -4q-52 0 -80.5 31t-28.5 82v389h115v-378q0 -22 6.5 -30.5t21.5 -8.5q12 0 17 1q6 0 9 1l12 -73q-6 -4 -18 -7q-21 -7 -54 -7zM120 721q32 0 49.5 -19t17.5 -50t-18 -51t-52 -20q-31 0 -49 19.5t-18 48.5q0 32 18 52t52 20z" />
    <glyph glyph-name="j" unicode="j" horiz-adv-x="245" 
d="M65 14v484h115v-473q0 -57 -14 -99t-43.5 -71t-52.5 -43.5t-62 -34.5l-47 77q35 18 57.5 39.5t32 44.5t12 39t2.5 37zM124 721q32 0 49.5 -19t17.5 -50t-18 -51t-52 -20q-31 0 -49 19.5t-18 48.5q0 32 18 52t52 20z" />
    <glyph glyph-name="k" unicode="k" horiz-adv-x="521" 
d="M227 249l-1 10q14 3 31 9t44 19t44.5 33.5t17.5 45.5q0 29 -16.5 44t-44.5 15q-15 0 -28 -2.5t-23 -7t-19 -11t-15.5 -13.5t-12 -15t-9 -14.5t-6.5 -14t-4.5 -12t-2.5 -9.5l-2 -5v-321h-115v705l115 20v-284q51 66 153 66q64 0 105.5 -35.5t41.5 -96.5q0 -75 -60 -120
q-26 -20 -59 -32l140 -223h-131z" />
    <glyph glyph-name="l" unicode="l" horiz-adv-x="292" 
d="M171 -4q-55 0 -83 30.5t-28 82.5v596l115 21v-606q0 -41 35 -41q22 0 37 4l16 4l14 -73l-29 -9q-34 -9 -77 -9z" />
    <glyph glyph-name="m" unicode="m" horiz-adv-x="809" 
d="M189 244v-244h-115v252q0 97 -25 166q-11 29 -24 47l91 36q8 -8 20 -27q20 -34 29 -80q24 56 68.5 84t98.5 28q89 0 121 -92q51 92 159 92q64 0 98 -37q39 -41 39 -135v-334h-115v326q0 90 -57 90q-39 0 -72.5 -41t-35.5 -106v-269h-115v326q0 90 -57 90q-42 0 -77 -49
t-31 -123z" />
    <glyph glyph-name="n" unicode="n" horiz-adv-x="549" 
d="M189 244v-244h-115v252q0 97 -25 166q-11 29 -24 47l91 36q8 -8 20 -27q20 -34 29 -80q25 56 72.5 84t105.5 28q67 0 104 -37q42 -42 42 -135v-334h-115v323q0 92 -65 92q-48 0 -86 -48.5t-34 -122.5z" />
    <glyph glyph-name="o" unicode="o" horiz-adv-x="517" 
d="M263 510q219 0 219 -255q0 -117 -59 -191t-169 -74q-219 0 -219 254q0 118 58.5 192t169.5 74zM253 425q-53 0 -73.5 -45t-20.5 -126q0 -84 23 -131.5t82 -47.5q53 0 73.5 44.5t20.5 125.5q0 85 -23 132.5t-82 47.5z" />
    <glyph glyph-name="p" unicode="p" horiz-adv-x="541" 
d="M25 465l91 36q11 -11 22 -30q22 -40 28 -87q18 62 55 92t101 30q91 0 137.5 -66t46.5 -182q0 -115 -67 -189.5t-172 -74.5q-24 0 -78 6v-201l-115 -20v473q0 97 -25 166q-11 29 -24 47zM303 424q-47 0 -79.5 -56.5t-34.5 -131.5v-151q40 -10 65 -10q128 0 128 173
q0 40 -2.5 67t-10 54.5t-24 41t-42.5 13.5z" />
    <glyph glyph-name="q" unicode="q" horiz-adv-x="532" 
d="M467 477v-699l-115 21v262q-40 -67 -133 -67q-91 0 -137.5 66t-46.5 182q0 115 67 189.5t172 74.5q42 0 126 -15q16 -3 67 -14zM238 76q48 0 81 59.5t33 135.5v143q-48 11 -65 11q-128 0 -128 -173q0 -40 2.5 -67t10 -54.5t24 -41t42.5 -13.5z" />
    <glyph glyph-name="r" unicode="r" horiz-adv-x="370" 
d="M289 393q-37 0 -66 -32t-34 -85v-276h-115v252q0 97 -25 166q-11 29 -24 47l91 36l19 -27q21 -36 29 -77q38 108 144 108q19 0 43 -6l19 -5l-32 -112q-1 0 -13 5q-16 6 -36 6z" />
    <glyph glyph-name="s" unicode="s" horiz-adv-x="412" 
d="M212 510q55 0 108 -20q30 -11 48 -19l-35 -79q-13 6 -39 16q-49 17 -78 17q-24 0 -40 -11.5t-16 -32.5q0 -56 83 -88q69 -26 101.5 -60t32.5 -94q0 -61 -47.5 -105t-127.5 -44q-56 0 -122 24q-31 11 -56 24l37 85q19 -11 46 -24q54 -24 85 -24q68 0 68 51q0 53 -73 82
q-78 29 -111 66t-33 96q0 58 49 99t120 41z" />
    <glyph glyph-name="t" unicode="t" horiz-adv-x="362" 
d="M10 416v82h90l20 117l95 21v-138h123l-14 -82h-109v-294q0 -41 45 -41q27 0 53 7q16 3 25 7l19 -76q-17 -7 -36 -12q-36 -11 -92 -11q-129 0 -129 113v307h-90z" />
    <glyph glyph-name="u" unicode="u" horiz-adv-x="549" 
d="M360 254v244h115v-257q0 -100 24 -166q10 -29 25 -47l-91 -36q-9 9 -21 28q-23 40 -29 82q-26 -55 -72.5 -81.5t-104.5 -26.5q-67 0 -104 37q-42 42 -42 135v332h115v-329q0 -90 65 -90q47 0 85.5 50t34.5 125z" />
    <glyph glyph-name="v" unicode="v" horiz-adv-x="524" 
d="M352 498h117q1 -10 5 -32q5 -32 5 -71q0 -217 -65 -308.5t-208 -91.5q-67 0 -104 37q-42 42 -42 134v332h115v-329q0 -93 65 -93q34 0 59 26t38.5 71t19.5 97t6 113q0 32 -6 78q-4 27 -5 37z" />
    <glyph glyph-name="w" unicode="w" horiz-adv-x="771" 
d="M599 498h117q1 -10 5 -32q5 -32 5 -71q0 -223 -54 -312.5t-191 -89.5q-67 0 -104 37q-18 18 -29 43q-18 -43 -50 -61.5t-92 -18.5q-67 0 -104 37q-42 42 -42 133v335h115v-326q0 -96 65 -96q95 0 95 194v228h115q-1 -50 -1 -139q0 -42 -0.5 -109t-0.5 -78q0 -96 67 -96
q22 0 39 11.5t27 35.5t16 48.5t9 65t3.5 70t0.5 76.5q0 39 -6 81q-4 25 -5 34z" />
    <glyph glyph-name="x" unicode="x" horiz-adv-x="481" 
d="M124 0h-129l167 264l-146 234h133l63 -103q10 -17 36 -72q36 58 43 71q20 37 34 74l11 30h119l-12 -34q-18 -45 -42 -89q-34 -58 -82 -112l162 -263h-131l-74 129q-20 34 -38 72l-20 -38t-19 -35z" />
    <glyph glyph-name="y" unicode="y" horiz-adv-x="538" 
d="M381 84l-3 8q-51 -98 -172 -98q-67 0 -104 37q-42 42 -42 135v332h115v-328q0 -90 65 -90q41 0 77 39.5t42 100.5v278h118l-5 -295q-2 -41 14.5 -106t16.5 -104q0 -109 -61 -163t-165 -46q-60 4 -110 23q-25 7 -48 18l29 87q86 -33 130 -37q55 -5 86 24t32.5 77.5
t-15.5 107.5z" />
    <glyph glyph-name="z" unicode="z" horiz-adv-x="418" 
d="M393 0h-363v69l220 348q-51 -3 -100 -3h-98l-14 84h346v-69l-216 -348q43 3 88 3h137v-84z" />
    <glyph glyph-name="braceleft" unicode="{" horiz-adv-x="365" 
d="M116 -77q0 37 7 105t7 97q0 83 -70 99v83q70 16 70 99q0 29 -7 96.5t-7 105.5q0 69 61 99t168 5l-23 -85q-37 15 -57.5 8t-27 -18t-6.5 -25q0 -31 6.5 -89t6.5 -83q0 -51 -16.5 -88t-66.5 -67q50 -30 66.5 -66.5t16.5 -87.5q0 -25 -6.5 -83t-6.5 -89q0 -14 6.5 -25
t27 -18t57.5 8l23 -85q-106 -27 -167.5 4.5t-61.5 99.5z" />
    <glyph glyph-name="bar" unicode="|" horiz-adv-x="310" 
d="M100 729h110v-855h-110v855z" />
    <glyph glyph-name="braceright" unicode="}" horiz-adv-x="365" 
d="M249 -77q0 -68 -61.5 -99.5t-167.5 -4.5l23 85q37 -15 57.5 -8t27 18t6.5 25q0 31 -6.5 89t-6.5 83q0 50 16.5 87.5t65.5 66.5q-49 29 -65.5 66.5t-16.5 88.5q0 25 6.5 83t6.5 89q0 14 -6.5 25t-27 18t-57.5 -8l-23 85q107 25 168 -5t61 -99q0 -38 -7 -105.5t-7 -96.5
q0 -83 70 -99v-83q-70 -16 -70 -99q0 -29 7 -97t7 -105z" />
    <glyph glyph-name="asciitilde" unicode="~" horiz-adv-x="517" 
d="M92 261l-42 47q13 24 30 41q40 42 94 42q41 0 90.5 -30t77.5 -30q20 0 34 5.5t23 13.5t26 27l42 -47q-14 -25 -31 -42q-41 -41 -94 -41q-40 0 -89.5 30t-78.5 30q-28 0 -42.5 -9.5t-39.5 -36.5z" />
    <glyph glyph-name="uni00A0" unicode="&#xa0;" horiz-adv-x="255" 
 />
    <glyph glyph-name="exclamdown" unicode="&#xa1;" horiz-adv-x="319" 
d="M140 354q-37 0 -56.5 21.5t-19.5 56.5q0 31 19.5 52.5t53.5 21.5q37 0 56.5 -21.5t19.5 -55.5t-19 -54.5t-54 -20.5zM90 -182v457h100l29 -457h-129z" />
    <glyph glyph-name="cent" unicode="&#xa2;" horiz-adv-x="460" 
d="M242 581h79v-87q66 -12 104 -64l-65 -62q-24 24 -39 32v-314q37 7 47 10q7 3 23 7l28 -73q-15 -7 -27 -11q-28 -12 -71 -16v-118h-79v116q-187 17 -187 236q0 112 51.5 179t135.5 79v86zM176 252q0 -136 66 -161v313q-66 -21 -66 -152z" />
    <glyph glyph-name="sterling" unicode="&#xa3;" horiz-adv-x="563" 
d="M60 251v91h74l7 87q6 94 64 150.5t150 56.5q42 0 79.5 -10t47.5 -16l31 -19l-49 -88q-11 10 -28 19q-35 20 -74 20q-91 0 -101 -106l-10 -94h182l-15 -91h-177l-4 -39q-8 -71 -41 -123q36 6 72 6q20 0 57 -3t56 -3q32 0 62 11q14 4 32 12l35 -85q-15 -8 -40 -17
q-48 -16 -88 -16q-32 0 -80 6t-69 6q-65 0 -98 -4l-40 -4l-28 68q16 11 25 25q24 36 29 85l6 75h-67z" />
    <glyph glyph-name="currency" unicode="&#xa4;" horiz-adv-x="589" 
d="M99 -6l-69 69l86 77q-45 58 -45 143q0 84 47 143l-86 78l69 69l83 -93q51 27 111 27q61 0 111 -26l83 92l69 -69l-87 -78q47 -59 47 -143q0 -83 -47 -142l88 -78l-69 -69l-84 93q-52 -27 -113 -27t-111 26zM157 288q0 -64 38.5 -108t97.5 -44q62 0 100.5 40.5t38.5 103.5
q0 64 -39 108t-100 44q-60 0 -98 -40.5t-38 -103.5z" />
    <glyph glyph-name="yen" unicode="&#xa5;" horiz-adv-x="593" 
d="M114 252v89h82l-166 296h130l136 -274l139 274h128l-168 -296h82v-89h-123v-61h123v-89h-123v-102h-120v102h-120v89h120v61h-120z" />
    <glyph glyph-name="brokenbar" unicode="&#xa6;" horiz-adv-x="310" 
d="M100 729h110v-376h-110v376zM100 248h110v-374h-110v374z" />
    <glyph glyph-name="section" unicode="&#xa7;" horiz-adv-x="559" 
d="M255 -216q-42 0 -88 14q-17 5 -39 14l35 79q10 -6 28 -11q27 -11 60 -11q56 0 56 52q0 30 -26.5 58.5t-64.5 54t-75.5 54t-64 69t-26.5 88.5q0 104 109 148q-39 50 -39 102q0 64 46.5 106t122.5 42q40 0 88 -14q13 -4 39 -14l-35 -79q-18 8 -28 11q-37 11 -60 11
q-56 0 -56 -52q0 -30 26.5 -58.5t64.5 -54t75.5 -54t64 -69t26.5 -88.5q0 -101 -109 -149q39 -49 39 -101q0 -64 -46.5 -106t-122.5 -42zM377 169q0 17 -8 33.5t-27 34.5t-33.5 29.5l-44 33.5l-42.5 32q-55 -21 -55 -74q0 -21 16 -44t32 -37t54 -42.5t52 -40.5q56 20 56 75z
" />
    <glyph glyph-name="dieresis" unicode="&#xa8;" 
d="M151 696q29 0 45 -17.5t16 -45.5q0 -29 -16.5 -47t-47.5 -18q-28 0 -44.5 17.5t-16.5 44.5q0 30 16.5 48t47.5 18zM351 696q29 0 45 -17.5t16 -45.5q0 -29 -16.5 -47t-47.5 -18q-28 0 -44.5 17.5t-16.5 44.5q0 30 16.5 48t47.5 18z" />
    <glyph glyph-name="copyright" unicode="&#xa9;" horiz-adv-x="782" 
d="M45 340q0 152 98 249t251 97q152 0 247.5 -96.5t95.5 -249.5q0 -152 -98.5 -249t-251.5 -97q-152 0 -247 96.5t-95 249.5zM131 346q0 -118 73 -198t186 -80q116 0 188.5 74t72.5 191q0 119 -73 199t-187 80q-115 0 -187.5 -74.5t-72.5 -191.5zM513 506l-49 -54
q-6 4 -15 9q-22 10 -39 10q-68 0 -68 -127q0 -57 18.5 -92t55.5 -35q45 0 67 13l22 -67q-12 -5 -29 -10q-38 -10 -73 -10q-157 0 -157 195q0 96 43.5 151.5t128.5 55.5q60 0 95 -39z" />
    <glyph glyph-name="ordfeminine" unicode="&#xaa;" horiz-adv-x="401" 
d="M338 667v-162q0 -66 16 -112q8 -22 17 -33l-67 -26q-8 7 -15 16q-15 21 -24 46q-25 -61 -98 -61q-66 0 -99 45.5t-33 126.5q0 79 46.5 129t120.5 50q34 0 88 -10zM178 400q29 0 49 42t20 97v78q-22 6 -37 6q-77 0 -77 -110q0 -53 9 -83t36 -30z" />
    <glyph glyph-name="guillemotleft" unicode="&#xab;" horiz-adv-x="568" 
d="M313 82l-48 -55q-36 31 -79 72q-89 87 -136 146q47 59 136 146q43 41 79 72l48 -55l-130 -163zM533 82l-48 -55q-36 31 -79 72q-89 87 -136 146q47 59 136 146q43 41 79 72l48 -55l-130 -163z" />
    <glyph glyph-name="logicalnot" unicode="&#xac;" horiz-adv-x="511" 
d="M50 307v89h411v-214h-87v125h-324z" />
    <glyph glyph-name="uni00AD" unicode="&#xad;" horiz-adv-x="383" 
d="M50 277v84h283v-84h-283z" />
    <glyph glyph-name="registered" unicode="&#xae;" horiz-adv-x="584" 
d="M60 454q0 102 66 167t168 65t166 -65t64 -167t-66 -167t-168 -65t-166 65t-64 167zM125 457q0 -75 47 -126.5t118 -51.5q74 0 120.5 47.5t46.5 122.5q0 76 -46.5 127t-120.5 51q-72 0 -118.5 -47.5t-46.5 -122.5zM284 581q92 0 92 -71q0 -35 -39 -59q14 -5 24 -24t34 -82
l-50 -18q-31 78 -42 90q-12 14 -36 16h-5v-108h-53v255h34q8 0 22 0.5t19 0.5zM277 549h-15v-85q9 0 23 2q23 5 29.5 13t6.5 27q0 43 -44 43z" />
    <glyph glyph-name="macron" unicode="&#xaf;" 
d="M89 599v84h323v-84h-323z" />
    <glyph glyph-name="degree" unicode="&#xb0;" horiz-adv-x="310" 
d="M40 604q0 51 32.5 84t83.5 33t82.5 -33t31.5 -84t-32.5 -84t-83.5 -33t-82.5 33t-31.5 84zM104 605q0 -27 13.5 -43.5t37.5 -16.5q25 0 38.5 15.5t13.5 43.5q0 27 -14 43t-38 16t-37.5 -15t-13.5 -43z" />
    <glyph glyph-name="plusminus" unicode="&#xb1;" horiz-adv-x="513" 
d="M61 257v89h148v152h95v-152h149v-89h-149v-136h148v-89h-392v89h149v136h-148z" />
    <glyph glyph-name="uni00B2" unicode="&#xb2;" horiz-adv-x="317" 
d="M159 686q111 0 111 -94q0 -36 -21.5 -71t-66.5 -81q-16 -16 -40 -33h135v-71h-241v71q8 6 24 20q15 12 50 47q39 43 53.5 65t14.5 44q0 34 -27 34q-22 0 -56 -17q-24 -13 -28 -16l-32 63q72 39 124 39z" />
    <glyph glyph-name="uni00B3" unicode="&#xb3;" horiz-adv-x="328" 
d="M163 686q50 0 77.5 -22.5t27.5 -60.5q0 -45 -45 -73q60 -25 60 -84q0 -50 -32 -83.5t-101 -33.5q-52 0 -115 34l26 62l28 -14q30 -13 58 -13q20 0 34 12t14 35q0 19 -9.5 31t-26.5 12q-12 0 -39 -3l-15 -3l-21 52q7 2 23.5 6t26 7t21.5 8.5t17.5 14.5t5.5 21q0 26 -24 26
q-27 0 -81 -25l-30 64q65 30 120 30z" />
    <glyph glyph-name="acute" unicode="&#xb4;" 
d="M176 539l-49 52l170 190l77 -72q-49 -60 -129 -122z" />
    <glyph glyph-name="uni00B5" unicode="&#xb5;" horiz-adv-x="554" 
d="M65 -222v720h115v-337q2 -38 24 -60t56 -22q41 0 71 40t34 104v275h115v-257q0 -100 24 -166q10 -29 25 -47l-91 -36q-9 9 -19 24q-20 29 -29 70q-38 -92 -130 -92q-46 0 -80 24v-219z" />
    <glyph glyph-name="paragraph" unicode="&#xb6;" horiz-adv-x="578" 
d="M508 677v-651q0 -46 -11.5 -84t-26.5 -61t-43 -45t-46.5 -32.5t-50.5 -26.5l-47 80q38 19 61.5 40t32 44.5t10 36t1.5 36.5v663h120zM290 679v-414q-113 0 -171.5 55t-58.5 153t59 152t171 54z" />
    <glyph glyph-name="periodcentered" unicode="&#xb7;" horiz-adv-x="249" 
d="M126 393q35 0 54 -20.5t19 -54.5t-19.5 -55.5t-56.5 -21.5q-34 0 -53.5 21.5t-19.5 52.5q0 35 19.5 56.5t56.5 21.5z" />
    <glyph glyph-name="cedilla" unicode="&#xb8;" 
d="M208 3h66l-11 -50q41 -3 65.5 -23.5t24.5 -55.5q0 -49 -34.5 -71t-83.5 -22t-87 18l16 54q39 -13 64 -13q50 0 50 31q0 21 -29 32.5t-63 11.5z" />
    <glyph glyph-name="uni00B9" unicode="&#xb9;" horiz-adv-x="267" 
d="M136 677h61v-341h-84v251q-29 -29 -68 -47l-35 64q15 5 45 19q47 22 81 54z" />
    <glyph glyph-name="ordmasculine" unicode="&#xba;" horiz-adv-x="410" 
d="M208 686q157 0 157 -174q0 -79 -42 -129.5t-121 -50.5q-157 0 -157 172q0 82 41.5 132t121.5 50zM201 619q-33 0 -45.5 -28t-12.5 -80q0 -112 66 -112q33 0 45.5 28t12.5 80q0 112 -66 112z" />
    <glyph glyph-name="guillemotright" unicode="&#xbb;" horiz-adv-x="568" 
d="M255 408l48 55q36 -31 79 -72q89 -87 136 -146q-47 -59 -136 -146q-43 -41 -79 -72l-48 55l130 163zM35 408l48 55q36 -31 79 -72q89 -87 136 -146q-47 -59 -136 -146q-43 -41 -79 -72l-48 55l130 163z" />
    <glyph glyph-name="onequarter" unicode="&#xbc;" horiz-adv-x="713" 
d="M139 0l274 587h95l-274 -587h-95zM649 267v-112h49l-10 -63h-39v-92h-84v92h-157v40l90 218h83l-83 -195h67v92zM131 586h61v-351h-84v261q-29 -29 -68 -47l-35 64q15 5 45 19q47 22 81 54z" />
    <glyph glyph-name="onehalf" unicode="&#xbd;" horiz-adv-x="727" 
d="M139 0l274 587h95l-274 -587h-95zM569 350q111 0 111 -94q0 -36 -21.5 -71t-66.5 -81q-16 -16 -40 -33h135v-71h-241v71q2 1 12.5 9.5t28 25l33.5 32.5q39 43 53.5 65t14.5 44q0 34 -27 34q-22 0 -56 -17q-24 -13 -28 -16l-32 63q72 39 124 39zM131 586h61v-346h-84v256
q-29 -29 -68 -47l-35 64q15 5 45 19q47 22 81 54z" />
    <glyph glyph-name="threequarters" unicode="&#xbe;" horiz-adv-x="788" 
d="M189 0l274 587h95l-274 -587h-95zM701 258v-112h49l-10 -63h-39v-83h-84v83h-157v40l90 218h83l-83 -195h67v92zM153 686q50 0 77.5 -22.5t27.5 -60.5q0 -45 -45 -73q60 -25 60 -84q0 -50 -32 -83.5t-101 -33.5q-52 0 -115 34l26 62l28 -14q30 -13 58 -13q20 0 34 12
t14 35q0 19 -9.5 31t-26.5 12q-12 0 -39 -3l-15 -3l-21 52q7 2 23.5 6t26 7t21.5 8.5t17.5 14.5t5.5 21q0 26 -24 26q-27 0 -81 -25l-30 64q65 30 120 30z" />
    <glyph glyph-name="questiondown" unicode="&#xbf;" horiz-adv-x="434" 
d="M215 -192q-190 0 -190 150q0 16 2.5 31.5t10 32.5l12 27.5t17.5 29.5t18 25.5l22 28l20 25.5q67 86 84 140l85 -23q0 -39 -14.5 -77t-35.5 -67.5l-42 -56.5t-35.5 -53.5t-14.5 -48.5q0 -35 21 -55.5t55 -20.5q11 0 21 1.5t17 3t19.5 6.5l18.5 7.5t23.5 11l25.5 12.5
l39 -80q-110 -50 -179 -50zM247 354q-35 0 -54 20.5t-19 54.5t19.5 55.5t56.5 21.5q34 0 53.5 -21.5t19.5 -52.5q0 -35 -19.5 -56.5t-56.5 -21.5z" />
    <glyph glyph-name="Agrave" unicode="&#xc0;" horiz-adv-x="606" 
d="M-5 0l260 677h96l260 -677h-128l-62 177h-243l-63 -177h-120zM210 266h180q-53 152 -89 277q-62 -195 -91 -277zM387 777l-29 -59q-52 15 -91 32q-98 40 -160 97l54 82z" />
    <glyph glyph-name="Aacute" unicode="&#xc1;" horiz-adv-x="606" 
d="M-5 0l260 677h96l260 -677h-128l-62 177h-243l-63 -177h-120zM210 266h180q-53 152 -89 277q-62 -195 -91 -277zM241 718l-29 59l226 152l54 -82q-62 -57 -160 -97q-39 -17 -91 -32z" />
    <glyph glyph-name="Acircumflex" unicode="&#xc2;" horiz-adv-x="606" 
d="M-5 0l260 677h96l260 -677h-128l-62 177h-243l-63 -177h-120zM210 266h180q-53 152 -89 277q-62 -195 -91 -277zM147 718l-44 54l198 158l198 -158l-44 -54l-48 23q-52 27 -106 67q-56 -41 -107 -67l-26.5 -13z" />
    <glyph glyph-name="Atilde" unicode="&#xc3;" horiz-adv-x="606" 
d="M-5 0l260 677h96l260 -677h-128l-62 177h-243l-63 -177h-120zM210 266h180q-53 152 -89 277q-62 -195 -91 -277zM137 760v75q12 7 23 11q26 12 57 12q25 0 77 -10t76 -10q31 0 57 7q16 4 23 7v-75q-10 -7 -23 -12q-24 -11 -57 -11q-24 0 -76 10t-77 10q-22 0 -57 -7
q-5 -2 -23 -7z" />
    <glyph glyph-name="Adieresis" unicode="&#xc4;" horiz-adv-x="606" 
d="M-5 0l260 677h96l260 -677h-128l-62 177h-243l-63 -177h-120zM210 266h180q-53 152 -89 277q-62 -195 -91 -277zM204 875q29 0 45 -17.5t16 -45.5q0 -29 -16.5 -47t-47.5 -18q-28 0 -44.5 17.5t-16.5 44.5q0 30 16.5 48t47.5 18zM404 875q29 0 45 -17.5t16 -45.5
q0 -29 -16.5 -47t-47.5 -18q-28 0 -44.5 17.5t-16.5 44.5q0 30 16.5 48t47.5 18z" />
    <glyph glyph-name="Aring" unicode="&#xc5;" horiz-adv-x="606" 
d="M203 727q0 44 28.5 72.5t72.5 28.5q43 0 70.5 -28.5t27.5 -72.5q0 -52 -39 -81l248 -646h-128l-62 177h-243l-63 -177h-120l247 644q-39 29 -39 83zM210 266h180q-53 152 -89 277q-62 -195 -91 -277zM259 728q0 -45 33 -51h20q34 6 34 50q0 50 -44 50q-43 0 -43 -49z" />
    <glyph glyph-name="AE" unicode="&#xc6;" horiz-adv-x="877" 
d="M-5 0l410 677h432v-91h-283v-188h233l-15 -91h-218v-216h298v-91h-416v177h-201l-101 -177h-139zM298 287l-12 -21h150v288q-105 -210 -138 -267z" />
    <glyph glyph-name="Ccedilla" unicode="&#xc7;" horiz-adv-x="524" 
d="M504 614l-62 -74q-48 53 -112 53q-80 0 -116.5 -68.5t-36.5 -183.5q0 -254 163 -254q17 0 35 2.5t33 6t26 7l21 7t11 3.5l28 -85q-26 -10 -41 -14q-52 -15 -103 -19l-9 -42q41 -3 65.5 -23.5t24.5 -55.5q0 -49 -34.5 -71t-83.5 -22t-87 18l16 54q39 -13 64 -13
q50 0 50 31q0 21 -29 32.5t-63 11.5l20 81q-117 10 -177 95t-60 239q0 164 74.5 260t220.5 96q100 0 162 -72z" />
    <glyph glyph-name="Egrave" unicode="&#xc8;" horiz-adv-x="513" 
d="M70 0v677h403v-91h-283v-188h233l-15 -91h-218v-216h298v-91h-418zM370 777l-29 -59q-52 15 -91 32q-98 40 -160 97l54 82z" />
    <glyph glyph-name="Eacute" unicode="&#xc9;" horiz-adv-x="513" 
d="M70 0v677h403v-91h-283v-188h233l-15 -91h-218v-216h298v-91h-418zM224 718l-29 59l226 152l54 -82q-62 -57 -160 -97q-39 -17 -91 -32z" />
    <glyph glyph-name="Ecircumflex" unicode="&#xca;" horiz-adv-x="513" 
d="M70 0v677h403v-91h-283v-188h233l-15 -91h-218v-216h298v-91h-418zM130 718l-44 54l198 158l198 -158l-44 -54l-48 23q-52 27 -106 67q-56 -41 -107 -67l-26.5 -13z" />
    <glyph glyph-name="Edieresis" unicode="&#xcb;" horiz-adv-x="513" 
d="M70 0v677h403v-91h-283v-188h233l-15 -91h-218v-216h298v-91h-418zM158 875q29 0 45 -17.5t16 -45.5q0 -29 -16.5 -47t-47.5 -18q-28 0 -44.5 17.5t-16.5 44.5q0 30 16.5 48t47.5 18zM358 875q29 0 45 -17.5t16 -45.5q0 -29 -16.5 -47t-47.5 -18q-28 0 -44.5 17.5
t-16.5 44.5q0 30 16.5 48t47.5 18z" />
    <glyph glyph-name="Igrave" unicode="&#xcc;" horiz-adv-x="260" 
d="M70 0v677h120v-677h-120zM217 777l-29 -59q-52 15 -91 32q-98 40 -160 97l54 82z" />
    <glyph glyph-name="Iacute" unicode="&#xcd;" horiz-adv-x="260" 
d="M70 0v677h120v-677h-120zM71 718l-29 59l226 152l54 -82q-62 -57 -160 -97q-39 -17 -91 -32z" />
    <glyph glyph-name="Icircumflex" unicode="&#xce;" horiz-adv-x="260" 
d="M70 0v677h120v-677h-120zM-23 718l-44 54l198 158l198 -158l-44 -54l-48 23q-52 27 -106 67q-56 -41 -107 -67l-26.5 -13z" />
    <glyph glyph-name="Idieresis" unicode="&#xcf;" horiz-adv-x="260" 
d="M70 0v677h120v-677h-120zM32 875q29 0 45 -17.5t16 -45.5q0 -29 -16.5 -47t-47.5 -18q-28 0 -44.5 17.5t-16.5 44.5q0 30 16.5 48t47.5 18zM232 875q29 0 45 -17.5t16 -45.5q0 -29 -16.5 -47t-47.5 -18q-28 0 -44.5 17.5t-16.5 44.5q0 30 16.5 48t47.5 18z" />
    <glyph glyph-name="Eth" unicode="&#xd0;" horiz-adv-x="643" 
d="M0 303v89h70v285h20q44 0 65 1q19 0 58 0.5t54 0.5q333 0 333 -336q0 -345 -346 -345q-80 0 -111 1q-34 0 -50 1h-23v303h-70zM253 589q-18 0 -38.5 -0.5t-24.5 -0.5v-196h178v-89h-178v-214q15 -1 78 -1q104 0 153 61t49 183q0 257 -217 257z" />
    <glyph glyph-name="Ntilde" unicode="&#xd1;" horiz-adv-x="660" 
d="M473 326l-3 351h120v-678h-100l-227 354l-84 133q8 -86 8 -135l3 -351h-120v679h94l234 -350l81 -124q-6 86 -6 121zM173 768v75q12 7 23 11q26 12 57 12q25 0 77 -10t76 -10q31 0 57 7q16 4 23 7v-75q-10 -7 -23 -12q-24 -11 -57 -11q-24 0 -76 10t-77 10q-22 0 -57 -7
q-5 -2 -23 -7z" />
    <glyph glyph-name="Ograve" unicode="&#xd2;" horiz-adv-x="669" 
d="M341 686q283 0 283 -342q0 -162 -74 -256t-222 -94q-283 0 -283 336q0 164 74 260t222 96zM327 593q-152 0 -152 -252q0 -55 7.5 -97.5t25 -79.5t51.5 -57t83 -20q152 0 152 247q0 259 -167 259zM419 777l-29 -59q-52 15 -91 32q-98 40 -160 97l54 82z" />
    <glyph glyph-name="Oacute" unicode="&#xd3;" horiz-adv-x="669" 
d="M341 686q283 0 283 -342q0 -162 -74 -256t-222 -94q-283 0 -283 336q0 164 74 260t222 96zM327 593q-152 0 -152 -252q0 -55 7.5 -97.5t25 -79.5t51.5 -57t83 -20q152 0 152 247q0 259 -167 259zM273 718l-29 59l226 152l54 -82q-62 -57 -160 -97q-39 -17 -91 -32z" />
    <glyph glyph-name="Ocircumflex" unicode="&#xd4;" horiz-adv-x="669" 
d="M341 686q283 0 283 -342q0 -162 -74 -256t-222 -94q-283 0 -283 336q0 164 74 260t222 96zM327 593q-152 0 -152 -252q0 -55 7.5 -97.5t25 -79.5t51.5 -57t83 -20q152 0 152 247q0 259 -167 259zM179 718l-44 54l198 158l198 -158l-44 -54l-48 23q-52 27 -106 67
q-56 -41 -107 -67l-26.5 -13z" />
    <glyph glyph-name="Otilde" unicode="&#xd5;" horiz-adv-x="669" 
d="M341 686q283 0 283 -342q0 -162 -74 -256t-222 -94q-283 0 -283 336q0 164 74 260t222 96zM327 593q-152 0 -152 -252q0 -55 7.5 -97.5t25 -79.5t51.5 -57t83 -20q152 0 152 247q0 259 -167 259zM169 760v75q12 7 23 11q26 12 57 12q25 0 77 -10t76 -10q31 0 57 7
q16 4 23 7v-75q-10 -7 -23 -12q-24 -11 -57 -11q-24 0 -76 10t-77 10q-22 0 -57 -7q-5 -2 -23 -7z" />
    <glyph glyph-name="Odieresis" unicode="&#xd6;" horiz-adv-x="669" 
d="M341 686q283 0 283 -342q0 -162 -74 -256t-222 -94q-283 0 -283 336q0 164 74 260t222 96zM327 593q-152 0 -152 -252q0 -55 7.5 -97.5t25 -79.5t51.5 -57t83 -20q152 0 152 247q0 259 -167 259zM236 875q29 0 45 -17.5t16 -45.5q0 -29 -16.5 -47t-47.5 -18
q-28 0 -44.5 17.5t-16.5 44.5q0 30 16.5 48t47.5 18zM436 875q29 0 45 -17.5t16 -45.5q0 -29 -16.5 -47t-47.5 -18q-28 0 -44.5 17.5t-16.5 44.5q0 30 16.5 48t47.5 18z" />
    <glyph glyph-name="multiply" unicode="&#xd7;" horiz-adv-x="516" 
d="M67 432l61 63l128 -129l131 131l66 -67l-130 -130l133 -133l-61 -63l-134 134l-135 -135l-66 67l134 134z" />
    <glyph glyph-name="Oslash" unicode="&#xd8;" horiz-adv-x="669" 
d="M341 686q43 0 72 -7l26 63l100 -40l-26 -65q111 -81 111 -293q0 -162 -74 -256t-222 -94q-40 0 -74 6l-25 -63l-99 40l25 63q-110 79 -110 290q0 164 74 260t222 96zM494 334q0 123 -30 182l-172 -424q25 -5 50 -5q152 0 152 247zM327 593q-152 0 -152 -252
q0 -120 29 -179l172 425q-21 6 -49 6z" />
    <glyph glyph-name="Ugrave" unicode="&#xd9;" horiz-adv-x="636" 
d="M60 677h119v-418q0 -172 145 -172q66 0 99 44.5t33 127.5v418h120v-427q0 -115 -63 -185.5t-202 -70.5q-133 0 -192 70.5t-59 185.5v427zM405 777l-29 -59q-52 15 -91 32q-98 40 -160 97l54 82z" />
    <glyph glyph-name="Uacute" unicode="&#xda;" horiz-adv-x="636" 
d="M60 677h119v-418q0 -172 145 -172q66 0 99 44.5t33 127.5v418h120v-427q0 -115 -63 -185.5t-202 -70.5q-133 0 -192 70.5t-59 185.5v427zM259 718l-29 59l226 152l54 -82q-62 -57 -160 -97q-39 -17 -91 -32z" />
    <glyph glyph-name="Ucircumflex" unicode="&#xdb;" horiz-adv-x="636" 
d="M60 677h119v-418q0 -172 145 -172q66 0 99 44.5t33 127.5v418h120v-427q0 -115 -63 -185.5t-202 -70.5q-133 0 -192 70.5t-59 185.5v427zM165 718l-44 54l198 158l198 -158l-44 -54l-48 23q-52 27 -106 67q-56 -41 -107 -67l-26.5 -13z" />
    <glyph glyph-name="Udieresis" unicode="&#xdc;" horiz-adv-x="636" 
d="M60 677h119v-418q0 -172 145 -172q66 0 99 44.5t33 127.5v418h120v-427q0 -115 -63 -185.5t-202 -70.5q-133 0 -192 70.5t-59 185.5v427zM219 875q29 0 45 -17.5t16 -45.5q0 -29 -16.5 -47t-47.5 -18q-28 0 -44.5 17.5t-16.5 44.5q0 30 16.5 48t47.5 18zM419 875
q29 0 45 -17.5t16 -45.5q0 -29 -16.5 -47t-47.5 -18q-28 0 -44.5 17.5t-16.5 44.5q0 30 16.5 48t47.5 18z" />
    <glyph glyph-name="Yacute" unicode="&#xdd;" horiz-adv-x="544" 
d="M210 0v259l-210 418h130l142 -305l144 305h128l-214 -423v-254h-120zM215 718l-29 59l226 152l54 -82q-62 -57 -160 -97q-39 -17 -91 -32z" />
    <glyph glyph-name="Thorn" unicode="&#xde;" horiz-adv-x="537" 
d="M70 0v677h120v-122q31 1 81 1q241 0 241 -204q0 -98 -65 -154t-188 -56h-69v-142h-120zM256 470q-50 0 -66 -1v-238h76q59 0 87.5 31.5t28.5 85.5q0 52 -29.5 87t-96.5 35z" />
    <glyph glyph-name="germandbls" unicode="&#xdf;" horiz-adv-x="579" 
d="M210 486v-461q0 -57 -14 -99t-43.5 -71t-52.5 -43.5t-62 -34.5l-43 69q35 18 57.5 40.5t30.5 48.5t10 41t2 38v465q0 94 44 162t144 81q109 13 166.5 -28.5t57.5 -108.5q0 -32 -12 -57t-28.5 -40.5t-33.5 -28.5t-29 -27t-12 -30q0 -25 16 -45t39 -36t46.5 -36t39.5 -54
t16 -79q0 -71 -51 -115t-134 -44q-40 0 -88 18q-17 6 -39 19l34 76q18 -10 27 -13q30 -13 51 -13q83 0 83 64q0 25 -15 44.5t-37 35t-44 33.5t-37 50t-15 75q0 34 17 62.5t37 45.5t37 39.5t17 45.5q0 34 -27 49t-65 12q-90 -10 -90 -150z" />
    <glyph glyph-name="agrave" unicode="&#xe0;" horiz-adv-x="536" 
d="M467 477v-236q0 -100 24 -166q10 -29 25 -47l-91 -36q-14 16 -23 31q-24 40 -28 91q-34 -120 -155 -120q-91 0 -137.5 66t-46.5 182q0 115 67 189.5t172 74.5q42 0 126 -15q16 -3 67 -14zM238 75q47 0 80.5 60t33.5 136v143q-48 11 -65 11q-128 0 -128 -173
q0 -40 2.5 -67t10 -55t24 -41.5t42.5 -13.5zM377 591l-49 -52l-69 48q-83 65 -129 122l77 72z" />
    <glyph glyph-name="aacute" unicode="&#xe1;" horiz-adv-x="536" 
d="M467 477v-236q0 -100 24 -166q10 -29 25 -47l-91 -36q-14 16 -23 31q-24 40 -28 91q-34 -120 -155 -120q-91 0 -137.5 66t-46.5 182q0 115 67 189.5t172 74.5q42 0 126 -15q16 -3 67 -14zM238 75q47 0 80.5 60t33.5 136v143q-48 11 -65 11q-128 0 -128 -173
q0 -40 2.5 -67t10 -55t24 -41.5t42.5 -13.5zM210 539l-49 52l170 190l77 -72q-49 -60 -129 -122z" />
    <glyph glyph-name="acircumflex" unicode="&#xe2;" horiz-adv-x="536" 
d="M467 477v-236q0 -100 24 -166q10 -29 25 -47l-91 -36q-14 16 -23 31q-24 40 -28 91q-34 -120 -155 -120q-91 0 -137.5 66t-46.5 182q0 115 67 189.5t172 74.5q42 0 126 -15q16 -3 67 -14zM238 75q47 0 80.5 60t33.5 136v143q-48 11 -65 11q-128 0 -128 -173
q0 -40 2.5 -67t10 -55t24 -41.5t42.5 -13.5zM124 539l-44 54l188 188l188 -188l-44 -54q-22 12 -44 27q-65 46 -100 76q-35 -29 -101 -76q-26 -18 -43 -27z" />
    <glyph glyph-name="atilde" unicode="&#xe3;" horiz-adv-x="536" 
d="M467 477v-236q0 -100 24 -166q10 -29 25 -47l-91 -36q-14 16 -23 31q-24 40 -28 91q-34 -120 -155 -120q-91 0 -137.5 66t-46.5 182q0 115 67 189.5t172 74.5q42 0 126 -15q16 -3 67 -14zM238 75q47 0 80.5 60t33.5 136v143q-48 11 -65 11q-128 0 -128 -173
q0 -40 2.5 -67t10 -55t24 -41.5t42.5 -13.5zM106 589v75q12 7 23 11q26 12 57 12q24 0 76 -10t77 -10q31 0 57 7q16 4 23 7v-75q-10 -7 -23 -12q-24 -11 -57 -11q-25 0 -77 10t-76 10q-22 0 -57 -7q-5 -2 -23 -7z" />
    <glyph glyph-name="adieresis" unicode="&#xe4;" horiz-adv-x="536" 
d="M467 477v-236q0 -100 24 -166q10 -29 25 -47l-91 -36q-14 16 -23 31q-24 40 -28 91q-34 -120 -155 -120q-91 0 -137.5 66t-46.5 182q0 115 67 189.5t172 74.5q42 0 126 -15q16 -3 67 -14zM238 75q47 0 80.5 60t33.5 136v143q-48 11 -65 11q-128 0 -128 -173
q0 -40 2.5 -67t10 -55t24 -41.5t42.5 -13.5zM169 715q29 0 45 -17.5t16 -45.5q0 -29 -16.5 -47t-47.5 -18q-28 0 -44.5 17.5t-16.5 44.5q0 30 16.5 48t47.5 18zM369 715q29 0 45 -17.5t16 -45.5q0 -29 -16.5 -47t-47.5 -18q-28 0 -44.5 17.5t-16.5 44.5q0 30 16.5 48
t47.5 18z" />
    <glyph glyph-name="aring" unicode="&#xe5;" horiz-adv-x="536" 
d="M467 477v-236q0 -100 24 -166q10 -29 25 -47l-91 -36q-14 16 -23 31q-24 40 -28 91q-34 -120 -155 -120q-91 0 -137.5 66t-46.5 182q0 115 67 189.5t172 74.5q42 0 126 -15q16 -3 67 -14zM238 75q47 0 80.5 60t33.5 136v143q-48 11 -65 11q-128 0 -128 -173
q0 -40 2.5 -67t10 -55t24 -41.5t42.5 -13.5zM168 646q0 44 28.5 72.5t72.5 28.5q43 0 70.5 -28.5t27.5 -72.5q0 -43 -28.5 -72t-72.5 -29q-42 0 -70 29t-28 72zM224 647q0 -24 11.5 -38t31.5 -14q44 0 44 51q0 50 -44 50q-43 0 -43 -49z" />
    <glyph glyph-name="ae" unicode="&#xe6;" horiz-adv-x="760" 
d="M274 506q87 0 164 -35q57 39 135 39q85 0 126 -39t41 -103q0 -75 -78.5 -126.5t-207.5 -53.5q7 -52 31.5 -82t78.5 -30q40 0 93 17q24 7 49 18l30 -72q-19 -10 -56 -23q-67 -23 -132 -23q-133 0 -184 93q-38 -92 -145 -92q-91 0 -137.5 66t-46.5 182q0 115 67 189.5
t172 74.5zM332 237q0 100 41 165q-42 23 -86 23q-128 0 -128 -173q0 -40 2.5 -67t10 -55t24 -41.5t42.5 -13.5q33 0 58.5 25.5t40.5 68.5q-5 26 -5 68zM564 431q-107 0 -113 -170q86 2 130 34.5t44 72.5q0 29 -17 46t-44 17z" />
    <glyph glyph-name="ccedilla" unicode="&#xe7;" horiz-adv-x="410" 
d="M400 442l-65 -62q-18 21 -33.5 31t-37.5 10q-19 0 -34 -5t-33 -20.5t-28 -52t-10 -91.5q0 -176 110 -176q22 0 62 10q24 6 35 10l28 -73q-16 -9 -39 -15q-31 -10 -71 -14l-9 -41q41 -3 65.5 -23.5t24.5 -55.5q0 -49 -34.5 -71t-83.5 -22t-87 18l16 54q39 -13 64 -13
q50 0 50 31q0 21 -29 32.5t-63 11.5l20 80q-183 20 -183 242q0 128 64.5 200.5t164.5 72.5q87 0 136 -68z" />
    <glyph glyph-name="egrave" unicode="&#xe8;" horiz-adv-x="473" 
d="M35 237q0 130 67.5 201.5t173.5 71.5q85 0 126 -39t41 -103q0 -75 -78.5 -126.5t-207.5 -53.5q7 -52 31.5 -82t78.5 -30q40 0 93 17q24 7 49 18l30 -72q-19 -10 -56 -23q-67 -23 -132 -23q-216 0 -216 244zM267 431q-107 0 -113 -170q86 2 130 34.5t44 72.5q0 29 -17 46
t-44 17zM366 591l-49 -52q-35 23 -69 48q-83 65 -129 122l77 72z" />
    <glyph glyph-name="eacute" unicode="&#xe9;" horiz-adv-x="473" 
d="M35 237q0 130 67.5 201.5t173.5 71.5q85 0 126 -39t41 -103q0 -75 -78.5 -126.5t-207.5 -53.5q7 -52 31.5 -82t78.5 -30q40 0 93 17q24 7 49 18l30 -72q-19 -10 -56 -23q-67 -23 -132 -23q-216 0 -216 244zM267 431q-107 0 -113 -170q86 2 130 34.5t44 72.5q0 29 -17 46
t-44 17zM199 539l-49 52l170 190l77 -72q-49 -60 -129 -122q-34 -25 -69 -48z" />
    <glyph glyph-name="ecircumflex" unicode="&#xea;" horiz-adv-x="473" 
d="M35 237q0 130 67.5 201.5t173.5 71.5q85 0 126 -39t41 -103q0 -75 -78.5 -126.5t-207.5 -53.5q7 -52 31.5 -82t78.5 -30q40 0 93 17q24 7 49 18l30 -72q-19 -10 -56 -23q-67 -23 -132 -23q-216 0 -216 244zM267 431q-107 0 -113 -170q86 2 130 34.5t44 72.5q0 29 -17 46
t-44 17zM113 539l-44 54l188 188l188 -188l-44 -54q-22 12 -44 27q-65 46 -100 76q-35 -29 -101 -76q-26 -18 -43 -27z" />
    <glyph glyph-name="edieresis" unicode="&#xeb;" horiz-adv-x="473" 
d="M35 237q0 130 67.5 201.5t173.5 71.5q85 0 126 -39t41 -103q0 -75 -78.5 -126.5t-207.5 -53.5q7 -52 31.5 -82t78.5 -30q40 0 93 17q24 7 49 18l30 -72q-19 -10 -56 -23q-67 -23 -132 -23q-216 0 -216 244zM267 431q-107 0 -113 -170q86 2 130 34.5t44 72.5q0 29 -17 46
t-44 17zM158 715q29 0 45 -17.5t16 -45.5q0 -29 -16.5 -47t-47.5 -18q-28 0 -44.5 17.5t-16.5 44.5q0 30 16.5 48t47.5 18zM358 715q29 0 45 -17.5t16 -45.5q0 -29 -16.5 -47t-47.5 -18q-28 0 -44.5 17.5t-16.5 44.5q0 30 16.5 48t47.5 18z" />
    <glyph glyph-name="igrave" unicode="&#xec;" horiz-adv-x="246" 
d="M159 -4q-52 0 -80.5 31t-28.5 82v389h115v-378q0 -22 6.5 -30.5t21.5 -8.5q12 0 17 1q6 0 9 1l12 -73q-6 -4 -18 -7q-21 -7 -54 -7zM184 591l-49 -52q-27 22 -56 50q-65 61 -115 124l80 68z" />
    <glyph glyph-name="iacute" unicode="&#xed;" horiz-adv-x="246" 
d="M159 -4q-52 0 -80.5 31t-28.5 82v389h115v-378q0 -22 6.5 -30.5t21.5 -8.5q12 0 17 1q6 0 9 1l12 -73q-6 -4 -18 -7q-21 -7 -54 -7zM79 539l-49 52l140 190l80 -68q-56 -68 -115 -124q-29 -28 -56 -50z" />
    <glyph glyph-name="icircumflex" unicode="&#xee;" horiz-adv-x="246" 
d="M159 -4q-52 0 -80.5 31t-28.5 82v389h115v-378q0 -22 6.5 -30.5t21.5 -8.5q12 0 17 1q6 0 9 1l12 -73q-6 -4 -18 -7q-21 -7 -54 -7zM-17 539l-47 51l171 191l171 -191l-47 -51l-36 27q-37 27 -88 74q-57 -52 -88 -75q-23 -18 -36 -26z" />
    <glyph glyph-name="idieresis" unicode="&#xef;" horiz-adv-x="246" 
d="M159 -4q-52 0 -80.5 31t-28.5 82v389h115v-378q0 -22 6.5 -30.5t21.5 -8.5q12 0 17 1q6 0 9 1l12 -73q-6 -4 -18 -7q-21 -7 -54 -7zM26 706q27 0 42.5 -16.5t15.5 -43.5t-16 -44.5t-45 -17.5q-27 0 -42.5 17t-15.5 42q0 28 16 45.5t45 17.5zM192 706q27 0 42.5 -16.5
t15.5 -43.5t-16 -44.5t-45 -17.5q-27 0 -42.5 17t-15.5 42q0 28 16 45.5t45 17.5z" />
    <glyph glyph-name="eth" unicode="&#xf0;" horiz-adv-x="517" 
d="M482 250q0 -117 -58.5 -188.5t-169.5 -71.5q-110 0 -164.5 67.5t-54.5 181.5q0 108 57 177t161 69q52 0 94 -29q-16 44 -47 98l-112 -31l-20 78l75 16l-54 42l58 71q56 -33 104 -87l121 32l20 -77l-93 -20q83 -135 83 -328zM253 404q-53 0 -73.5 -41t-20.5 -115
q0 -173 105 -173q94 0 94 165q0 77 -23 120.5t-82 43.5z" />
    <glyph glyph-name="ntilde" unicode="&#xf1;" horiz-adv-x="549" 
d="M189 244v-244h-115v252q0 97 -25 166q-11 29 -24 47l91 36q8 -8 20 -27q20 -34 29 -80q25 56 72.5 84t105.5 28q67 0 104 -37q42 -42 42 -135v-334h-115v323q0 92 -65 92q-48 0 -86 -48.5t-34 -122.5zM157 589v75q12 7 23 11q26 12 57 12q25 0 77 -10t76 -10q31 0 57 7
q16 4 23 7v-75q-10 -7 -23 -12q-24 -11 -57 -11q-24 0 -76 10t-77 10q-22 0 -57 -7q-5 -2 -23 -7z" />
    <glyph glyph-name="ograve" unicode="&#xf2;" horiz-adv-x="517" 
d="M263 510q219 0 219 -255q0 -117 -59 -191t-169 -74q-219 0 -219 254q0 118 58.5 192t169.5 74zM253 425q-53 0 -73.5 -45t-20.5 -126q0 -84 23 -131.5t82 -47.5q53 0 73.5 44.5t20.5 125.5q0 85 -23 132.5t-82 47.5zM366 591l-49 -52q-35 23 -69 48q-83 65 -129 122
l77 72z" />
    <glyph glyph-name="oacute" unicode="&#xf3;" horiz-adv-x="517" 
d="M263 510q219 0 219 -255q0 -117 -59 -191t-169 -74q-219 0 -219 254q0 118 58.5 192t169.5 74zM253 425q-53 0 -73.5 -45t-20.5 -126q0 -84 23 -131.5t82 -47.5q53 0 73.5 44.5t20.5 125.5q0 85 -23 132.5t-82 47.5zM199 539l-49 52l170 190l77 -72q-49 -60 -129 -122
q-34 -25 -69 -48z" />
    <glyph glyph-name="ocircumflex" unicode="&#xf4;" horiz-adv-x="517" 
d="M263 510q219 0 219 -255q0 -117 -59 -191t-169 -74q-219 0 -219 254q0 118 58.5 192t169.5 74zM253 425q-53 0 -73.5 -45t-20.5 -126q0 -84 23 -131.5t82 -47.5q53 0 73.5 44.5t20.5 125.5q0 85 -23 132.5t-82 47.5zM113 539l-44 54l188 188l188 -188l-44 -54
q-22 12 -44 27q-65 46 -100 76q-35 -29 -101 -76q-26 -18 -43 -27z" />
    <glyph glyph-name="otilde" unicode="&#xf5;" horiz-adv-x="517" 
d="M263 510q219 0 219 -255q0 -117 -59 -191t-169 -74q-219 0 -219 254q0 118 58.5 192t169.5 74zM253 425q-53 0 -73.5 -45t-20.5 -126q0 -84 23 -131.5t82 -47.5q53 0 73.5 44.5t20.5 125.5q0 85 -23 132.5t-82 47.5zM95 589v75q12 7 23 11q26 12 57 12q25 0 77 -10
t76 -10q31 0 57 7q16 4 23 7v-75q-10 -7 -23 -12q-24 -11 -57 -11q-24 0 -76 10t-77 10q-22 0 -57 -7q-5 -2 -23 -7z" />
    <glyph glyph-name="odieresis" unicode="&#xf6;" horiz-adv-x="517" 
d="M263 510q219 0 219 -255q0 -117 -59 -191t-169 -74q-219 0 -219 254q0 118 58.5 192t169.5 74zM253 425q-53 0 -73.5 -45t-20.5 -126q0 -84 23 -131.5t82 -47.5q53 0 73.5 44.5t20.5 125.5q0 85 -23 132.5t-82 47.5zM158 715q29 0 45 -17.5t16 -45.5q0 -29 -16.5 -47
t-47.5 -18q-28 0 -44.5 17.5t-16.5 44.5q0 30 16.5 48t47.5 18zM358 715q29 0 45 -17.5t16 -45.5q0 -29 -16.5 -47t-47.5 -18q-28 0 -44.5 17.5t-16.5 44.5q0 30 16.5 48t47.5 18z" />
    <glyph glyph-name="divide" unicode="&#xf7;" horiz-adv-x="511" 
d="M255 196q27 0 42.5 -16.5t15.5 -43.5t-16 -44.5t-45 -17.5q-27 0 -42.5 17t-15.5 42q0 27 16 45t45 18zM255 525q27 0 42.5 -16.5t15.5 -43.5t-16 -44.5t-45 -17.5q-27 0 -42.5 17t-15.5 42q0 28 16 45.5t45 17.5zM60 257v89h391v-89h-391z" />
    <glyph glyph-name="oslash" unicode="&#xf8;" horiz-adv-x="517" 
d="M263 510q36 0 70 -8l26 52l78 -36l-27 -56q72 -63 72 -207q0 -117 -59 -191t-169 -74q-34 0 -71 8l-25 -52l-78 35l27 56q-72 63 -72 207q0 118 58.5 192t169.5 74zM253 427q-100 0 -100 -173q0 -81 7 -109l135 277q-22 5 -42 5zM364 245q0 81 -7 109l-135 -277
q15 -4 42 -4q100 0 100 172z" />
    <glyph glyph-name="ugrave" unicode="&#xf9;" horiz-adv-x="549" 
d="M360 254v244h115v-257q0 -100 24 -166q10 -29 25 -47l-91 -36q-9 9 -21 28q-23 40 -29 82q-26 -55 -72.5 -81.5t-104.5 -26.5q-67 0 -104 37q-42 42 -42 135v332h115v-329q0 -90 65 -90q47 0 85.5 50t34.5 125zM380 591l-49 -52q-35 23 -69 48q-83 65 -129 122l77 72z
" />
    <glyph glyph-name="uacute" unicode="&#xfa;" horiz-adv-x="549" 
d="M360 254v244h115v-257q0 -100 24 -166q10 -29 25 -47l-91 -36q-9 9 -21 28q-23 40 -29 82q-26 -55 -72.5 -81.5t-104.5 -26.5q-67 0 -104 37q-42 42 -42 135v332h115v-329q0 -90 65 -90q47 0 85.5 50t34.5 125zM213 539l-49 52l170 190l77 -72q-49 -60 -129 -122
q-34 -25 -69 -48z" />
    <glyph glyph-name="ucircumflex" unicode="&#xfb;" horiz-adv-x="549" 
d="M360 254v244h115v-257q0 -100 24 -166q10 -29 25 -47l-91 -36q-9 9 -21 28q-23 40 -29 82q-26 -55 -72.5 -81.5t-104.5 -26.5q-67 0 -104 37q-42 42 -42 135v332h115v-329q0 -90 65 -90q47 0 85.5 50t34.5 125zM127 539l-44 54l188 188l188 -188l-44 -54q-22 12 -44 27
q-65 46 -100 76q-35 -29 -101 -76q-26 -18 -43 -27z" />
    <glyph glyph-name="udieresis" unicode="&#xfc;" horiz-adv-x="549" 
d="M360 254v244h115v-257q0 -100 24 -166q10 -29 25 -47l-91 -36q-9 9 -21 28q-23 40 -29 82q-26 -55 -72.5 -81.5t-104.5 -26.5q-67 0 -104 37q-42 42 -42 135v332h115v-329q0 -90 65 -90q47 0 85.5 50t34.5 125zM172 715q29 0 45 -17.5t16 -45.5q0 -29 -16.5 -47
t-47.5 -18q-28 0 -44.5 17.5t-16.5 44.5q0 30 16.5 48t47.5 18zM372 715q29 0 45 -17.5t16 -45.5q0 -29 -16.5 -47t-47.5 -18q-28 0 -44.5 17.5t-16.5 44.5q0 30 16.5 48t47.5 18z" />
    <glyph glyph-name="yacute" unicode="&#xfd;" horiz-adv-x="538" 
d="M381 84l-3 8q-51 -98 -172 -98q-67 0 -104 37q-42 42 -42 135v332h115v-328q0 -90 65 -90q41 0 77 39.5t42 100.5v278h118l-5 -295q-2 -41 14.5 -106t16.5 -104q0 -109 -61 -163t-165 -46q-60 4 -110 23q-25 7 -48 18l29 87q86 -33 130 -37q55 -5 86 24t32.5 77.5
t-15.5 107.5zM210 539l-49 52l170 190l77 -72q-49 -60 -129 -122z" />
    <glyph glyph-name="thorn" unicode="&#xfe;" horiz-adv-x="532" 
d="M180 725v-287q39 68 133 68q91 0 137.5 -66t46.5 -182q0 -115 -67 -189.5t-172 -74.5q-24 0 -78 6v-201l-115 -20v926zM294 424q-47 0 -79.5 -56.5t-34.5 -131.5v-151q40 -10 65 -10q128 0 128 173q0 40 -2.5 67t-10 54.5t-24 41t-42.5 13.5z" />
    <glyph glyph-name="ydieresis" unicode="&#xff;" horiz-adv-x="538" 
d="M381 84l-3 8q-51 -98 -172 -98q-67 0 -104 37q-42 42 -42 135v332h115v-328q0 -90 65 -90q41 0 77 39.5t42 100.5v278h118l-5 -295q-2 -41 14.5 -106t16.5 -104q0 -109 -61 -163t-165 -46q-60 4 -110 23q-25 7 -48 18l29 87q86 -33 130 -37q55 -5 86 24t32.5 77.5
t-15.5 107.5zM169 715q29 0 45 -17.5t16 -45.5q0 -29 -16.5 -47t-47.5 -18q-28 0 -44.5 17.5t-16.5 44.5q0 30 16.5 48t47.5 18zM369 715q29 0 45 -17.5t16 -45.5q0 -29 -16.5 -47t-47.5 -18q-28 0 -44.5 17.5t-16.5 44.5q0 30 16.5 48t47.5 18z" />
    <glyph glyph-name="dotlessi" unicode="&#x131;" horiz-adv-x="246" 
d="M159 -4q-52 0 -80.5 31t-28.5 82v389h115v-378q0 -22 6.5 -30.5t21.5 -8.5q12 0 17 1q6 0 9 1l12 -73q-6 -4 -18 -7q-21 -7 -54 -7z" />
    <glyph glyph-name="OE" unicode="&#x152;" horiz-adv-x="855" 
d="M830 0h-418q-58 -6 -84 -6q-283 0 -283 336q0 164 74 260t222 96q48 0 82 -9h392v-91h-283v-188h233l-15 -91h-218v-216h298v-91zM342 87q20 0 70 6v487q-35 13 -85 13q-152 0 -152 -252q0 -55 7.5 -97.5t25 -79.5t51.5 -57t83 -20z" />
    <glyph glyph-name="oe" unicode="&#x153;" horiz-adv-x="799" 
d="M263 510q108 0 165 -77q68 77 174 77q85 0 126 -39t41 -103q0 -75 -78.5 -126.5t-207.5 -53.5q7 -52 31.5 -82t78.5 -30q40 0 93 17q24 7 49 18l30 -72q-19 -10 -56 -23q-67 -23 -132 -23q-106 0 -163 70q-61 -73 -160 -73q-219 0 -219 254q0 118 58.5 192t169.5 74z
M253 425q-53 0 -73.5 -45t-20.5 -126q0 -84 23 -131.5t82 -47.5q53 0 73.5 44.5t20.5 125.5q0 85 -23 132.5t-82 47.5zM593 431q-107 0 -113 -170q86 2 130 34.5t44 72.5q0 29 -17 46t-44 17z" />
    <glyph glyph-name="Ydieresis" unicode="&#x178;" horiz-adv-x="544" 
d="M210 0v259l-210 418h130l142 -305l144 305h128l-214 -423v-254h-120zM173 875q29 0 45 -17.5t16 -45.5q0 -29 -16.5 -47t-47.5 -18q-28 0 -44.5 17.5t-16.5 44.5q0 30 16.5 48t47.5 18zM373 875q29 0 45 -17.5t16 -45.5q0 -29 -16.5 -47t-47.5 -18q-28 0 -44.5 17.5
t-16.5 44.5q0 30 16.5 48t47.5 18z" />
    <glyph glyph-name="apostrophe" unicode="&#x2bc;" horiz-adv-x="231" 
d="M77 706q5 4 15 9q25 9 51 9q34 0 51 -20.5t17 -54.5q0 -75 -39 -129t-99 -85l-43 59q37 28 52.5 61.5t14 54.5t-10 54.5t-9.5 41.5z" />
    <glyph glyph-name="circumflex" unicode="&#x2c6;" 
d="M106 539l-44 54l188 188l188 -188l-44 -54q-22 12 -44 27q-65 46 -100 76q-35 -29 -101 -76q-26 -18 -43 -27z" />
    <glyph glyph-name="ring" unicode="&#x2da;" 
d="M151 726q0 44 28.5 72.5t72.5 28.5q43 0 70.5 -28.5t27.5 -72.5q0 -43 -28.5 -72t-72.5 -29q-42 0 -70 29t-28 72zM207 727q0 -24 11.5 -38t31.5 -14q44 0 44 51q0 50 -44 50q-43 0 -43 -49z" />
    <glyph glyph-name="tilde" unicode="&#x2dc;" 
d="M93 589v75q12 7 23 11q26 12 57 12q25 0 77 -10t76 -10q31 0 57 7q16 4 23 7v-75q-10 -7 -23 -12q-24 -11 -57 -11q-24 0 -76 10t-77 10q-22 0 -57 -7q-5 -2 -23 -7z" />
    <glyph glyph-name="endash" unicode="&#x2013;" 
d="M0 277v84h500v-84h-500z" />
    <glyph glyph-name="emdash" unicode="&#x2014;" horiz-adv-x="698" 
d="M0 277v84h698v-84h-698z" />
    <glyph glyph-name="quoteleft" unicode="&#x2018;" horiz-adv-x="231" 
d="M154 451q-4 -5 -15 -9q-20 -9 -51 -9q-34 0 -51 20.5t-17 54.5q0 75 39 129t99 85l43 -59q-38 -28 -53.5 -61.5t-13.5 -55t10.5 -54t9.5 -41.5z" />
    <glyph glyph-name="quoteright" unicode="&#x2019;" horiz-adv-x="231" 
d="M77 706q5 4 15 9q25 9 51 9q34 0 51 -20.5t17 -54.5q0 -75 -39 -129t-99 -85l-43 59q37 28 52.5 61.5t14 54.5t-10 54.5t-9.5 41.5z" />
    <glyph glyph-name="quotesinglbase" unicode="&#x201a;" horiz-adv-x="231" 
d="M77 123q5 5 15 9q25 9 51 9q34 0 51 -20.5t17 -54.5q0 -75 -39 -129t-99 -85l-43 59q37 28 52.5 61.5t14 54.5t-10 54.5t-9.5 41.5z" />
    <glyph glyph-name="quotedblleft" unicode="&#x201c;" horiz-adv-x="431" 
d="M154 451q-4 -5 -15 -9q-20 -9 -51 -9q-34 0 -51 20.5t-17 54.5q0 75 39 129t99 85l43 -59q-38 -28 -53.5 -61.5t-13.5 -55t10.5 -54t9.5 -41.5zM354 451q-4 -5 -15 -9q-20 -9 -51 -9q-34 0 -51 20.5t-17 54.5q0 75 39 129t99 85l43 -59q-38 -28 -53.5 -61.5t-13.5 -55
t10.5 -54t9.5 -41.5z" />
    <glyph glyph-name="quotedblright" unicode="&#x201d;" horiz-adv-x="431" 
d="M77 709q5 5 15 9q25 9 51 9q34 0 51 -20.5t17 -54.5q0 -75 -39 -129t-99 -85l-43 59q37 28 52.5 61.5t14 54.5t-10 54.5t-9.5 41.5zM277 709q5 5 15 9q25 9 51 9q34 0 51 -20.5t17 -54.5q0 -75 -39 -129t-99 -85l-43 59q37 28 52.5 61.5t14 54.5t-10 54.5t-9.5 41.5z" />
    <glyph glyph-name="quotedblbase" unicode="&#x201e;" horiz-adv-x="431" 
d="M77 123q5 5 15 9q25 9 51 9q34 0 51 -20.5t17 -54.5q0 -75 -39 -129t-99 -85l-43 59q37 28 52.5 61.5t14 54.5t-10 54.5t-9.5 41.5zM277 123q5 5 15 9q25 9 51 9q34 0 51 -20.5t17 -54.5q0 -75 -39 -129t-99 -85l-43 59q37 28 52.5 61.5t14 54.5t-10 54.5t-9.5 41.5z" />
    <glyph glyph-name="bullet" unicode="&#x2022;" horiz-adv-x="314" 
d="M50 316q0 49 29 78t78 29t78 -29t29 -78t-29 -78t-78 -29t-78 29t-29 78z" />
    <glyph glyph-name="guilsinglleft" unicode="&#x2039;" horiz-adv-x="348" 
d="M313 82l-48 -55q-36 31 -79 72q-89 87 -136 146q47 59 136 146q43 41 79 72l48 -55l-130 -163z" />
    <glyph glyph-name="guilsinglright" unicode="&#x203a;" horiz-adv-x="348" 
d="M35 408l48 55q36 -31 79 -72q89 -87 136 -146q-47 -59 -136 -146q-43 -41 -79 -72l-48 55l130 163z" />
    <glyph glyph-name="fraction" unicode="&#x2044;" horiz-adv-x="329" 
d="M-20 0l274 587h95l-274 -587h-95z" />
    <glyph glyph-name="uni2074" unicode="&#x2074;" horiz-adv-x="330" 
d="M261 594v-112h49l-10 -63h-39v-83h-84v83h-157v40l90 218h83l-83 -195h67v92z" />
    <glyph glyph-name="Euro" unicode="&#x20ac;" horiz-adv-x="556" 
d="M35 335v89h60q25 101 92 160t162 59q92 0 152 -68l-58 -72q-48 50 -105 50q-43 0 -73.5 -34.5t-45.5 -94.5h216l-15 -89h-213v-16q0 -35 2 -45h206l-15 -89h-173q37 -101 120 -101q16 0 33 2t31 6l24.5 7t20 6.5t10.5 3.5l26 -83q-16 -7 -47 -16q-62 -16 -119 -16
q-85 0 -145.5 49t-84.5 142h-61v89h48q-1 11 -1 35q0 17 1 26h-48z" />
    <glyph glyph-name="minus" unicode="&#x2212;" horiz-adv-x="458" 
d="M60 257v89h338v-89h-338z" />
    <glyph glyph-name="uni2215" unicode="&#x2215;" horiz-adv-x="418" 
d="M-10 -126l318 855h120l-318 -855h-120z" />
    </font>
</defs>
</svg>
